<?xml version="1.0" standalone="yes"?>

<svg version="1.1" viewBox="0.0 0.0 746.3412073490814 301.9790026246719" fill="none" stroke="none" stroke-linecap="square" stroke-miterlimit="10" xmlns="http://www.w3.org/2000/svg" xmlns:xlink="http://www.w3.org/1999/xlink"><clipPath id="p.0"><path d="m0 0l746.3412 0l0 301.979l-746.3412 0l0 -301.979z" clip-rule="nonzero"></path></clipPath><g clip-path="url(#p.0)"><path fill="#000000" fill-opacity="0.0" d="m0 0l746.3412 0l0 301.979l-746.3412 0z" fill-rule="evenodd"></path><g filter="url(#shadowFilter-p.1)"><use xlink:href="#p.1" transform="matrix(1.0 0.0 0.0 1.0 -0.1045283420192288 -0.9945218143813566)"></use></g><defs><filter id="shadowFilter-p.1" filterUnits="userSpaceOnUse"><feGaussianBlur in="SourceAlpha" stdDeviation="0.0" result="blur"></feGaussianBlur><feComponentTransfer in="blur" color-interpolation-filters="sRGB"><feFuncR type="linear" slope="0" intercept="0.0"></feFuncR><feFuncG type="linear" slope="0" intercept="0.0"></feFuncG><feFuncB type="linear" slope="0" intercept="0.0"></feFuncB><feFuncA type="linear" slope="0.47" intercept="0"></feFuncA></feComponentTransfer></filter></defs><g id="p.1"><path fill="#000000" fill-opacity="0.0" d="m27.971128 22.401768l0 0c0 -5.3432083 4.331526 -9.674733 9.674734 -9.674733l98.09935 0c2.5659027 0 5.026703 1.0192986 6.8410797 2.833664c1.8143616 1.8143644 2.833664 4.2751703 2.833664 6.841069l0 38.697777c0 5.3432045 -4.3315277 9.674732 -9.674744 9.674732l-98.09935 0c-5.3432083 0 -9.674734 -4.3315277 -9.674734 -9.674732z" fill-rule="evenodd"></path><path stroke="#000000" stroke-width="1.0" stroke-linejoin="round" stroke-linecap="butt" d="m27.971128 22.401768l0 0c0 -5.3432083 4.331526 -9.674733 9.674734 -9.674733l98.09935 0c2.5659027 0 5.026703 1.0192986 6.8410797 2.833664c1.8143616 1.8143644 2.833664 4.2751703 2.833664 6.841069l0 38.697777c0 5.3432045 -4.3315277 9.674732 -9.674744 9.674732l-98.09935 0c-5.3432083 0 -9.674734 -4.3315277 -9.674734 -9.674732z" fill-rule="evenodd"></path><path fill="#000000" d="m48.710445 44.811275l1.625 -0.21875q0.0625 1.546875 0.578125 2.125q0.53125 0.578125 1.4375 0.578125q0.6875 0 1.171875 -0.3125q0.5 -0.3125 0.671875 -0.84375q0.1875 -0.53125 0.1875 -1.703125l0 -9.359375l1.8125 0l0 9.265625q0 1.703125 -0.421875 2.640625q-0.40625 0.9375 -1.3125 1.4375q-0.890625 0.484375 -2.09375 0.484375q-1.796875 0 -2.75 -1.03125q-0.9375 -1.03125 -0.90625 -3.0625zm16.468754 2.640625q-0.9375 0.796875 -1.7968788 1.125q-0.859375 0.3125 -1.84375 0.3125q-1.609375 0 -2.484375 -0.78125q-0.875 -0.796875 -0.875 -2.03125q0 -0.734375 0.328125 -1.328125q0.328125 -0.59375 0.859375 -0.953125q0.53125 -0.359375 1.203125 -0.546875q0.5 -0.140625 1.484375 -0.25q2.0312538 -0.25 2.9843788 -0.578125q0 -0.34375 0 -0.4375q0 -1.015625 -0.46875 -1.4375q-0.6406288 -0.5625 -1.9062538 -0.5625q-1.171875 0 -1.734375 0.40625q-0.5625 0.40625 -0.828125 1.46875l-1.640625 -0.234375q0.234375 -1.046875 0.734375 -1.6875q0.515625 -0.640625 1.46875 -0.984375q0.96875 -0.359375 2.25 -0.359375q1.2656288 0 2.0468788 0.296875q0.78125 0.296875 1.15625 0.75q0.375 0.453125 0.515625 1.140625q0.09375 0.421875 0.09375 1.53125l0 2.234375q0 2.328125 0.09375 2.953125q0.109375 0.609375 0.4375 1.171875l-1.75 0q-0.265625 -0.515625 -0.328125 -1.21875zm-0.140625 -3.71875q-0.90625 0.359375 -2.7343788 0.625q-1.03125 0.140625 -1.453125 0.328125q-0.421875 0.1875 -0.65625 0.546875q-0.234375 0.359375 -0.234375 0.796875q0 0.671875 0.5 1.125q0.515625 0.4375 1.484375 0.4375q0.96875 0 1.71875 -0.421875q0.7500038 -0.4375 1.1093788 -1.15625q0.265625 -0.578125 0.265625 -1.671875l0 -0.609375zm6.813217 4.9375l-3.75 -9.859375l1.765625 0l2.125 5.90625q0.34375 0.953125 0.625 1.984375q0.21875 -0.78125 0.625 -1.875l2.1875 -6.015625l1.71875 0l-3.734375 9.859375l-1.5625 0zm13.03125 -1.21875q-0.9375 0.796875 -1.796875 1.125q-0.859375 0.3125 -1.84375 0.3125q-1.609375 0 -2.484375 -0.78125q-0.875 -0.796875 -0.875 -2.03125q0 -0.734375 0.328125 -1.328125q0.328125 -0.59375 0.859375 -0.953125q0.53125 -0.359375 1.203125 -0.546875q0.5 -0.140625 1.484375 -0.25q2.03125 -0.25 2.984375 -0.578125q0 -0.34375 0 -0.4375q0 -1.015625 -0.46875 -1.4375q-0.640625 -0.5625 -1.90625 -0.5625q-1.171875 0 -1.734375 0.40625q-0.5625 0.40625 -0.828125 1.46875l-1.640625 -0.234375q0.234375 -1.046875 0.734375 -1.6875q0.515625 -0.640625 1.46875 -0.984375q0.96875 -0.359375 2.25 -0.359375q1.265625 0 2.046875 0.296875q0.78125 0.296875 1.15625 0.75q0.375 0.453125 0.515625 1.140625q0.09375 0.421875 0.09375 1.53125l0 2.234375q0 2.328125 0.09375 2.953125q0.109375 0.609375 0.4375 1.171875l-1.75 0q-0.265625 -0.515625 -0.328125 -1.21875zm-0.140625 -3.71875q-0.90625 0.359375 -2.734375 0.625q-1.03125 0.140625 -1.453125 0.328125q-0.421875 0.1875 -0.65625 0.546875q-0.234375 0.359375 -0.234375 0.796875q0 0.671875 0.5 1.125q0.515625 0.4375 1.484375 0.4375q0.96875 0 1.71875 -0.421875q0.75 -0.4375 1.109375 -1.15625q0.265625 -0.578125 0.265625 -1.671875l0 -0.609375z" fill-rule="nonzero"></path><path fill="#000000" d="m97.82126 35.905025q0 -1.109375 -0.234375 -2.453125q0.96875 0.078125 2.015625 0.21875q-0.234375 0.453125 -0.3125 1.453125q-0.0625 1.0 0.015625 2.859375l2.515625 -0.453125q1.265625 -0.296875 2.53125 -0.65625l0.296875 1.40625q-1.265625 0.140625 -2.609375 0.375l-2.671875 0.515625q0 1.1875 0.15625 2.078125l2.890625 -0.515625q1.484375 -0.296875 2.828125 -0.75l0.21875 1.40625q-1.34375 0.234375 -2.828125 0.53125l-2.890625 0.515625q0.15625 1.484375 0.75 2.75q0.65625 -0.53125 1.28125 -1.1875q0.640625 -0.671875 1.15625 -1.484375q1.125 0.890625 1.71875 1.1875q-0.96875 0.4375 -1.53125 1.0q-0.546875 0.546875 -1.8125 1.734375q0.890625 1.484375 1.59375 1.90625q0.703125 0.40625 1.0 0.03125q0.296875 -0.375 0.515625 -1.5625q0.671875 0.515625 1.5625 0.8125q-1.265625 3.28125 -2.75 2.640625q-1.484375 -0.625 -3.109375 -2.9375q-1.046875 0.828125 -2.046875 1.53125q-1.0 0.703125 -2.484375 1.453125q-0.375 -0.75 -1.109375 -1.34375q1.484375 -0.515625 2.515625 -1.109375q1.046875 -0.59375 2.375 -1.71875q-0.65625 -1.484375 -0.953125 -3.484375q-2.234375 0.375 -3.125 0.671875l-0.21875 -1.40625q0.890625 0 3.046875 -0.453125q-0.15625 -1.1875 -0.15625 -2.0q-2.0 0.4375 -2.75 0.671875l-0.296875 -1.421875q0.75 0 2.90625 -0.4375l0 -2.375zm-4.453125 -1.703125q-0.75 0.65625 -1.453125 1.890625q-0.703125 1.21875 -1.890625 3.0q1.78125 -0.078125 2.453125 -0.078125q0.65625 -1.109375 1.1875 -2.4375q0.734375 0.515625 1.625 0.8125q-0.734375 0.734375 -1.515625 2.0q-0.78125 1.265625 -2.71875 4.3125q2.015625 -0.15625 3.5625 -0.296875q-0.21875 0.734375 -0.21875 1.25q-0.515625 0 -2.296875 0.1875q-1.78125 0.1875 -2.890625 0.484375q-0.078125 -0.734375 -0.453125 -1.5625q0.890625 -0.21875 1.625 -1.171875q0.75 -0.96875 1.5625 -2.453125q-2.4375 0.140625 -3.109375 0.59375q-0.21875 -0.828125 -0.671875 -1.640625q0.96875 -0.671875 1.859375 -2.1875q0.890625 -1.515625 1.625 -3.53125q0.75 0.53125 1.71875 0.828125zm1.84375 11.875q-0.0625 0.8125 0 1.25q-1.84375 0.375 -3.328125 0.75q-1.484375 0.375 -2.75 0.8125q-0.21875 -0.8125 -0.8125 -1.625q2.078125 -0.234375 3.1875 -0.40625q1.109375 -0.1875 3.703125 -0.78125zm6.765625 -9.359375q-0.53125 -0.8125 -1.421875 -1.921875l1.1875 -0.59375q0.296875 0.359375 1.484375 1.78125q-0.734375 0.296875 -1.25 0.734375z" fill-rule="nonzero"></path><path fill="#000000" d="m113.35251 44.73315l-1.625 -1.859375l0 7.4375l-1.484375 0l0 -7.0625q-1.125 2.078125 -2.375 3.1875l-0.96875 -1.40625q2.515625 -2.453125 3.34375 -5.5625l-2.75 0l0 -1.40625l2.75 0l0 -2.078125l-2.3125 0.359375l-0.4375 -1.484375q3.5625 -0.59375 5.71875 -1.40625l1.03125 1.40625q0.078125 0.53125 -0.4375 0.234375l-2.078125 0.59375l0 2.375l2.671875 0l0 1.40625l-2.671875 0l0 1.484375q1.1875 0.8125 2.734375 2.453125l-1.109375 1.328125zm6.609375 -1.703125l0 1.921875l3.109375 0l0 1.421875l-3.109375 0l0 2.0l4.15625 0l0 1.40625l-10.546875 0l0 -1.40625l4.90625 0l0 -2.0l-3.34375 0l0 -1.421875l3.34375 0l0 -1.921875l-3.640625 0l0 -1.40625l8.765625 0l0 1.40625l-3.640625 0zm1.703125 -7.28125l-4.671875 0l0 2.671875l4.671875 0l0 -2.671875zm0 4.75l0 -0.65625l-4.671875 0l0 0.734375l-1.484375 0l0 -6.234375l7.640625 0l0 6.15625l-1.484375 0z" fill-rule="nonzero"></path></g><g filter="url(#shadowFilter-p.2)"><use xlink:href="#p.2" transform="matrix(1.0 0.0 0.0 1.0 -0.1045283420192288 -0.9945218143813566)"></use></g><defs><filter id="shadowFilter-p.2" filterUnits="userSpaceOnUse"><feGaussianBlur in="SourceAlpha" stdDeviation="0.0" result="blur"></feGaussianBlur><feComponentTransfer in="blur" color-interpolation-filters="sRGB"><feFuncR type="linear" slope="0" intercept="0.0"></feFuncR><feFuncG type="linear" slope="0" intercept="0.0"></feFuncG><feFuncB type="linear" slope="0" intercept="0.0"></feFuncB><feFuncA type="linear" slope="0.47" intercept="0"></feFuncA></feComponentTransfer></filter></defs><g id="p.2"><path fill="#000000" fill-opacity="0.0" d="m207.54199 22.517256l0 0c0 -5.40699 4.3832397 -9.790221 9.790222 -9.790221l97.86838 0c2.596527 0 5.0867004 1.0314665 6.9227295 2.8674889c1.836029 1.8360224 2.8674927 4.3262053 2.8674927 6.9227324l0 39.159714c0 5.40699 -4.3832397 9.790222 -9.790222 9.790222l-97.86838 0c-5.4069824 0 -9.790222 -4.383232 -9.790222 -9.790222z" fill-rule="evenodd"></path><path stroke="#000000" stroke-width="1.0" stroke-linejoin="round" stroke-linecap="butt" d="m207.54199 22.517256l0 0c0 -5.40699 4.3832397 -9.790221 9.790222 -9.790221l97.86838 0c2.596527 0 5.0867004 1.0314665 6.9227295 2.8674889c1.836029 1.8360224 2.8674927 4.3262053 2.8674927 6.9227324l0 39.159714c0 5.40699 -4.3832397 9.790222 -9.790222 9.790222l-97.86838 0c-5.4069824 0 -9.790222 -4.383232 -9.790222 -9.790222z" fill-rule="evenodd"></path><path fill="#000000" d="m236.79765 46.938988l0 -9.203125l-5.859375 0l0 -1.640625l13.4375 0l0 1.640625l-5.859375 0l0 9.203125l7.265625 0l0 1.625l-16.171875 0l0 -1.625l7.1875 0zm28.062515 -10.015625l0 1.40625l-5.34375 0l0 2.75l4.671875 0l0 1.40625l-4.671875 0l0 2.453125l4.96875 0l0 1.40625l-4.96875 0l0 4.15625l-1.484375 0l0 -12.171875l-0.75 0q-1.1875 2.515625 -2.5156403 3.859375l-1.40625 -1.046875q2.9687653 -3.109375 3.7031403 -7.34375l1.5625 0.453125q0.4375 0.21875 -0.078125 0.359375q-0.140625 0.75 -0.734375 2.3125l7.046875 0zm-16.625015 5.1875q3.265625 -3.78125 4.296875 -8.15625l1.640625 0.515625q0.4375 0.296875 -0.078125 0.375q-0.515625 1.703125 -1.484375 3.703125l0.453125 0.15625q0.296875 0.296875 -0.234375 0.359375l0 11.4375l-1.484375 0l0 -9.65625q-0.8125 1.34375 -1.921875 2.53125l-1.1875 -1.265625zm31.843735 4.078125q-2.375 -2.59375 -4.3125 -4.296875q-0.96875 3.046875 -4.1562195 5.125l-1.03125 -1.484375q4.1562195 -2.453125 4.1562195 -7.359375l-4.6093445 0l0 11.953125l-1.703125 0l0 -13.359375l6.3749695 0l0 -2.59375l1.640625 0q0.734375 0.140625 0.078125 0.59375l0 2.0l6.671875 0l0 11.734375q0 1.484375 -1.40625 1.484375l-1.78125 0l-0.296875 -1.640625l1.484375 0q0.296875 0 0.296875 -0.296875l0 -9.875l-5.046875 0q0 1.125 -0.21875 2.234375q2.890625 1.921875 4.96875 4.15625l-1.109375 1.625zm9.203125 -2.4375q-1.640625 1.625 -2.3125 2.0l-0.8125 -1.5625q1.78125 -1.109375 3.125 -2.890625l0 -1.34375l0.890625 0.234375q0.953125 -1.484375 1.484375 -3.046875l-5.046875 0l0 -1.40625l5.40625 0q0.234375 -0.671875 0.53125 -2.078125l1.625 0.4375q0.296875 0.296875 -0.21875 0.375l-0.296875 1.265625l8.984375 0l0 1.40625l-9.4375 0q-0.8125 2.515625 -2.4375 4.828125l0 8.609375l-1.484375 0l0 -6.828125zm4.078125 -4.828125l6.75 0l0.21875 -0.21875l1.1875 0.953125q0.453125 0.453125 -0.296875 0.59375l-2.8125 2.234375l0 1.109375l4.671875 0l0 1.40625l-4.671875 0l0 4.234375q0 1.1875 -1.1875 1.1875l-1.484375 0l-0.21875 -1.40625l1.109375 0q0.296875 0 0.296875 -0.296875l0 -3.71875l-5.125 0l0 -1.40625l5.125 0l0 -2.15625l0.734375 0.078125l1.265625 -1.1875l-5.5625 0l0 -1.40625z" fill-rule="nonzero"></path></g><g filter="url(#shadowFilter-p.3)"><use xlink:href="#p.3" transform="matrix(1.0 0.0 0.0 1.0 -0.1045283420192288 -0.9945218143813566)"></use></g><defs><filter id="shadowFilter-p.3" filterUnits="userSpaceOnUse"><feGaussianBlur in="SourceAlpha" stdDeviation="0.0" result="blur"></feGaussianBlur><feComponentTransfer in="blur" color-interpolation-filters="sRGB"><feFuncR type="linear" slope="0" intercept="0.0"></feFuncR><feFuncG type="linear" slope="0" intercept="0.0"></feFuncG><feFuncB type="linear" slope="0" intercept="0.0"></feFuncB><feFuncA type="linear" slope="0.47" intercept="0"></feFuncA></feComponentTransfer></filter></defs><g id="p.3"><path fill="#000000" fill-opacity="0.0" d="m27.969816 131.49364l0 0c0 -5.40699 4.38323 -9.790222 9.79022 -9.790222l97.86838 0c2.596527 0 5.0867004 1.0314636 6.9227295 2.867485c1.8360138 1.8360214 2.8674927 4.32621 2.8674927 6.922737l0 39.159714c0 5.4069824 -4.3832397 9.790222 -9.790222 9.790222l-97.86838 0c-5.40699 0 -9.79022 -4.3832397 -9.79022 -9.790222z" fill-rule="evenodd"></path><path stroke="#000000" stroke-width="1.0" stroke-linejoin="round" stroke-linecap="butt" d="m27.969816 131.49364l0 0c0 -5.40699 4.38323 -9.790222 9.79022 -9.790222l97.86838 0c2.596527 0 5.0867004 1.0314636 6.9227295 2.867485c1.8360138 1.8360214 2.8674927 4.32621 2.8674927 6.922737l0 39.159714c0 5.4069824 -4.3832397 9.790222 -9.790222 9.790222l-97.86838 0c-5.40699 0 -9.79022 -4.3832397 -9.79022 -9.790222z" fill-rule="evenodd"></path><path fill="#000000" d="m48.709133 154.13411l1.625 -0.21875q0.0625 1.546875 0.578125 2.125q0.53125 0.578125 1.4375 0.578125q0.6875 0 1.171875 -0.3125q0.5 -0.3125 0.671875 -0.84375q0.1875 -0.53125 0.1875 -1.703125l0 -9.359375l1.8125 0l0 9.265625q0 1.703125 -0.421875 2.640625q-0.40625 0.9375 -1.3125 1.4375q-0.890625 0.484375 -2.09375 0.484375q-1.796875 0 -2.75 -1.03125q-0.9375 -1.03125 -0.90625 -3.0625zm16.468754 2.640625q-0.9375 0.796875 -1.7968788 1.125q-0.859375 0.3125 -1.84375 0.3125q-1.609375 0 -2.484375 -0.78125q-0.875 -0.796875 -0.875 -2.03125q0 -0.734375 0.328125 -1.328125q0.328125 -0.59375 0.859375 -0.953125q0.53125 -0.359375 1.203125 -0.546875q0.5 -0.140625 1.484375 -0.25q2.0312538 -0.25 2.9843788 -0.578125q0 -0.34375 0 -0.4375q0 -1.015625 -0.46875 -1.4375q-0.6406288 -0.5625 -1.9062538 -0.5625q-1.171875 0 -1.734375 0.40625q-0.5625 0.40625 -0.828125 1.46875l-1.640625 -0.234375q0.234375 -1.046875 0.734375 -1.6875q0.515625 -0.640625 1.46875 -0.984375q0.96875 -0.359375 2.25 -0.359375q1.2656288 0 2.0468788 0.296875q0.78125 0.296875 1.15625 0.75q0.375 0.453125 0.515625 1.140625q0.09375 0.421875 0.09375 1.53125l0 2.234375q0 2.328125 0.09375 2.953125q0.109375 0.609375 0.4375 1.171875l-1.75 0q-0.265625 -0.515625 -0.328125 -1.21875zm-0.140625 -3.71875q-0.90625 0.359375 -2.7343788 0.625q-1.03125 0.140625 -1.453125 0.328125q-0.421875 0.1875 -0.65625 0.546875q-0.234375 0.359375 -0.234375 0.796875q0 0.671875 0.5 1.125q0.515625 0.4375 1.484375 0.4375q0.96875 0 1.71875 -0.421875q0.7500038 -0.4375 1.1093788 -1.15625q0.265625 -0.578125 0.265625 -1.671875l0 -0.609375zm6.813217 4.9375l-3.75 -9.859375l1.765625 0l2.125 5.90625q0.34375 0.953125 0.625 1.984375q0.21875 -0.78125 0.625 -1.875l2.1875 -6.015625l1.71875 0l-3.734375 9.859375l-1.5625 0zm13.03125 -1.21875q-0.9375 0.796875 -1.796875 1.125q-0.859375 0.3125 -1.84375 0.3125q-1.609375 0 -2.484375 -0.78125q-0.875 -0.796875 -0.875 -2.03125q0 -0.734375 0.328125 -1.328125q0.328125 -0.59375 0.859375 -0.953125q0.53125 -0.359375 1.203125 -0.546875q0.5 -0.140625 1.484375 -0.25q2.03125 -0.25 2.984375 -0.578125q0 -0.34375 0 -0.4375q0 -1.015625 -0.46875 -1.4375q-0.640625 -0.5625 -1.90625 -0.5625q-1.171875 0 -1.734375 0.40625q-0.5625 0.40625 -0.828125 1.46875l-1.640625 -0.234375q0.234375 -1.046875 0.734375 -1.6875q0.515625 -0.640625 1.46875 -0.984375q0.96875 -0.359375 2.25 -0.359375q1.265625 0 2.046875 0.296875q0.78125 0.296875 1.15625 0.75q0.375 0.453125 0.515625 1.140625q0.09375 0.421875 0.09375 1.53125l0 2.234375q0 2.328125 0.09375 2.953125q0.109375 0.609375 0.4375 1.171875l-1.75 0q-0.265625 -0.515625 -0.328125 -1.21875zm-0.140625 -3.71875q-0.90625 0.359375 -2.734375 0.625q-1.03125 0.140625 -1.453125 0.328125q-0.421875 0.1875 -0.65625 0.546875q-0.234375 0.359375 -0.234375 0.796875q0 0.671875 0.5 1.125q0.515625 0.4375 1.484375 0.4375q0.96875 0 1.71875 -0.421875q0.75 -0.4375 1.109375 -1.15625q0.265625 -0.578125 0.265625 -1.671875l0 -0.609375z" fill-rule="nonzero"></path><path fill="#000000" d="m97.81994 145.22786q0 -1.109375 -0.234375 -2.453125q0.96875 0.078125 2.015625 0.21875q-0.234375 0.453125 -0.3125 1.453125q-0.0625 1.0 0.015625 2.859375l2.515625 -0.453125q1.265625 -0.296875 2.53125 -0.65625l0.296875 1.40625q-1.265625 0.140625 -2.609375 0.375l-2.671875 0.515625q0 1.1875 0.15625 2.078125l2.890625 -0.515625q1.484375 -0.296875 2.828125 -0.75l0.21875 1.40625q-1.34375 0.234375 -2.828125 0.53125l-2.890625 0.515625q0.15625 1.484375 0.75 2.75q0.65625 -0.53125 1.28125 -1.1875q0.640625 -0.671875 1.15625 -1.484375q1.125 0.890625 1.71875 1.1875q-0.96875 0.4375 -1.53125 1.0q-0.546875 0.546875 -1.8125 1.734375q0.890625 1.484375 1.59375 1.90625q0.703125 0.40625 1.0 0.03125q0.296875 -0.375 0.515625 -1.5625q0.671875 0.515625 1.5625 0.8125q-1.265625 3.28125 -2.75 2.640625q-1.484375 -0.625 -3.109375 -2.9375q-1.046875 0.828125 -2.046875 1.53125q-1.0 0.703125 -2.484375 1.453125q-0.375 -0.75 -1.1093674 -1.34375q1.4843674 -0.515625 2.5156174 -1.109375q1.046875 -0.59375 2.375 -1.71875q-0.65625 -1.484375 -0.953125 -3.484375q-2.234375 0.375 -3.125 0.671875l-0.21875 -1.40625q0.890625 0 3.046875 -0.453125q-0.15625 -1.1875 -0.15625 -2.0q-2.0 0.4375 -2.75 0.671875l-0.296875 -1.421875q0.75 0 2.90625 -0.4375l0 -2.375zm-4.4531174 -1.703125q-0.75 0.65625 -1.453125 1.890625q-0.703125 1.21875 -1.890625 3.0q1.78125 -0.078125 2.453125 -0.078125q0.65625 -1.109375 1.1875 -2.4375q0.734375 0.515625 1.6249924 0.8125q-0.7343674 0.734375 -1.5156174 2.0q-0.78125 1.265625 -2.71875 4.3125q2.015625 -0.15625 3.5625 -0.296875q-0.21875 0.734375 -0.21875 1.25q-0.515625 0 -2.296875 0.1875q-1.78125 0.1875 -2.890625 0.484375q-0.078125 -0.734375 -0.453125 -1.5625q0.890625 -0.21875 1.625 -1.171875q0.75 -0.96875 1.5625 -2.453125q-2.4375 0.140625 -3.109375 0.59375q-0.21875 -0.828125 -0.671875 -1.640625q0.96875 -0.671875 1.859375 -2.1875q0.890625 -1.515625 1.625 -3.53125q0.75 0.53125 1.71875 0.828125zm1.8437424 11.875q-0.0625 0.8125 0 1.25q-1.8437424 0.375 -3.3281174 0.75q-1.484375 0.375 -2.75 0.8125q-0.21875 -0.8125 -0.8125 -1.625q2.078125 -0.234375 3.1875 -0.40625q1.109375 -0.1875 3.7031174 -0.78125zm6.765625 -9.359375q-0.53125 -0.8125 -1.421875 -1.921875l1.1875 -0.59375q0.296875 0.359375 1.484375 1.78125q-0.734375 0.296875 -1.25 0.734375z" fill-rule="nonzero"></path><path fill="#000000" d="m113.35119 154.05598l-1.625 -1.859375l0 7.4375l-1.484375 0l0 -7.0625q-1.125 2.078125 -2.375 3.1875l-0.96875 -1.40625q2.515625 -2.453125 3.34375 -5.5625l-2.75 0l0 -1.40625l2.75 0l0 -2.078125l-2.3125 0.359375l-0.4375 -1.484375q3.5625 -0.59375 5.71875 -1.40625l1.03125 1.40625q0.078125 0.53125 -0.4375 0.234375l-2.078125 0.59375l0 2.375l2.671875 0l0 1.40625l-2.671875 0l0 1.484375q1.1875 0.8125 2.734375 2.453125l-1.109375 1.328125zm6.609375 -1.703125l0 1.921875l3.109375 0l0 1.421875l-3.109375 0l0 2.0l4.15625 0l0 1.40625l-10.546875 0l0 -1.40625l4.90625 0l0 -2.0l-3.34375 0l0 -1.421875l3.34375 0l0 -1.921875l-3.640625 0l0 -1.40625l8.765625 0l0 1.40625l-3.640625 0zm1.703125 -7.28125l-4.671875 0l0 2.671875l4.671875 0l0 -2.671875zm0 4.75l0 -0.65625l-4.671875 0l0 0.734375l-1.484375 0l0 -6.234375l7.640625 0l0 6.15625l-1.484375 0z" fill-rule="nonzero"></path></g><g filter="url(#shadowFilter-p.4)"><use xlink:href="#p.4" transform="matrix(1.0 0.0 0.0 1.0 -0.1045283420192288 -0.9945218143813566)"></use></g><defs><filter id="shadowFilter-p.4" filterUnits="userSpaceOnUse"><feGaussianBlur in="SourceAlpha" stdDeviation="0.0" result="blur"></feGaussianBlur><feComponentTransfer in="blur" color-interpolation-filters="sRGB"><feFuncR type="linear" slope="0" intercept="0.0"></feFuncR><feFuncG type="linear" slope="0" intercept="0.0"></feFuncG><feFuncB type="linear" slope="0" intercept="0.0"></feFuncB><feFuncA type="linear" slope="0.47" intercept="0"></feFuncA></feComponentTransfer></filter></defs><g id="p.4"><path fill="#000000" fill-opacity="0.0" d="m207.54199 132.18655l0 0c0 -5.4069977 4.3832397 -9.79023 9.790222 -9.79023l97.86838 0c2.596527 0 5.0867004 1.0314713 6.9227295 2.8674927c1.836029 1.8360214 2.8674927 4.326195 2.8674927 6.922737l0 39.159714c0 5.4069824 -4.3832397 9.790222 -9.790222 9.790222l-97.86838 0c-5.4069824 0 -9.790222 -4.3832397 -9.790222 -9.790222z" fill-rule="evenodd"></path><path stroke="#000000" stroke-width="1.0" stroke-linejoin="round" stroke-linecap="butt" d="m207.54199 132.18655l0 0c0 -5.4069977 4.3832397 -9.79023 9.790222 -9.79023l97.86838 0c2.596527 0 5.0867004 1.0314713 6.9227295 2.8674927c1.836029 1.8360214 2.8674927 4.326195 2.8674927 6.922737l0 39.159714c0 5.4069824 -4.3832397 9.790222 -9.790222 9.790222l-97.86838 0c-5.4069824 0 -9.790222 -4.3832397 -9.790222 -9.790222z" fill-rule="evenodd"></path><path fill="#000000" d="m236.79765 156.60828l0 -9.203125l-5.859375 0l0 -1.640625l13.4375 0l0 1.640625l-5.859375 0l0 9.203125l7.265625 0l0 1.625l-16.171875 0l0 -1.625l7.1875 0zm28.062515 -10.015625l0 1.40625l-5.34375 0l0 2.75l4.671875 0l0 1.40625l-4.671875 0l0 2.453125l4.96875 0l0 1.40625l-4.96875 0l0 4.15625l-1.484375 0l0 -12.171875l-0.75 0q-1.1875 2.515625 -2.5156403 3.859375l-1.40625 -1.046875q2.9687653 -3.109375 3.7031403 -7.34375l1.5625 0.453125q0.4375 0.21875 -0.078125 0.359375q-0.140625 0.75 -0.734375 2.3125l7.046875 0zm-16.625015 5.1875q3.265625 -3.78125 4.296875 -8.15625l1.640625 0.515625q0.4375 0.296875 -0.078125 0.375q-0.515625 1.703125 -1.484375 3.703125l0.453125 0.15625q0.296875 0.296875 -0.234375 0.359375l0 11.4375l-1.484375 0l0 -9.65625q-0.8125 1.34375 -1.921875 2.53125l-1.1875 -1.265625zm31.843735 4.078125q-2.375 -2.59375 -4.3125 -4.296875q-0.96875 3.046875 -4.1562195 5.125l-1.03125 -1.484375q4.1562195 -2.453125 4.1562195 -7.359375l-4.6093445 0l0 11.953125l-1.703125 0l0 -13.359375l6.3749695 0l0 -2.59375l1.640625 0q0.734375 0.140625 0.078125 0.59375l0 2.0l6.671875 0l0 11.734375q0 1.484375 -1.40625 1.484375l-1.78125 0l-0.296875 -1.640625l1.484375 0q0.296875 0 0.296875 -0.296875l0 -9.875l-5.046875 0q0 1.125 -0.21875 2.234375q2.890625 1.921875 4.96875 4.15625l-1.109375 1.625zm9.203125 -2.4375q-1.640625 1.625 -2.3125 2.0l-0.8125 -1.5625q1.78125 -1.109375 3.125 -2.890625l0 -1.34375l0.890625 0.234375q0.953125 -1.484375 1.484375 -3.046875l-5.046875 0l0 -1.40625l5.40625 0q0.234375 -0.671875 0.53125 -2.078125l1.625 0.4375q0.296875 0.296875 -0.21875 0.375l-0.296875 1.265625l8.984375 0l0 1.40625l-9.4375 0q-0.8125 2.515625 -2.4375 4.828125l0 8.609375l-1.484375 0l0 -6.828125zm4.078125 -4.828125l6.75 0l0.21875 -0.21875l1.1875 0.953125q0.453125 0.453125 -0.296875 0.59375l-2.8125 2.234375l0 1.109375l4.671875 0l0 1.40625l-4.671875 0l0 4.234375q0 1.1875 -1.1875 1.1875l-1.484375 0l-0.21875 -1.40625l1.109375 0q0.296875 0 0.296875 -0.296875l0 -3.71875l-5.125 0l0 -1.40625l5.125 0l0 -2.15625l0.734375 0.078125l1.265625 -1.1875l-5.5625 0l0 -1.40625z" fill-rule="nonzero"></path></g><g filter="url(#shadowFilter-p.5)"><use xlink:href="#p.5" transform="matrix(1.0 0.0 0.0 1.0 -0.1045283420192288 -0.9945218143813566)"></use></g><defs><filter id="shadowFilter-p.5" filterUnits="userSpaceOnUse"><feGaussianBlur in="SourceAlpha" stdDeviation="0.0" result="blur"></feGaussianBlur><feComponentTransfer in="blur" color-interpolation-filters="sRGB"><feFuncR type="linear" slope="0" intercept="0.0"></feFuncR><feFuncG type="linear" slope="0" intercept="0.0"></feFuncG><feFuncB type="linear" slope="0" intercept="0.0"></feFuncB><feFuncA type="linear" slope="0.47" intercept="0"></feFuncA></feComponentTransfer></filter></defs><g id="p.5"><path fill="#000000" fill-opacity="0.0" d="m27.969816 241.16292l0 0c0 -5.4069824 4.38323 -9.790222 9.79022 -9.790222l97.86838 0c2.596527 0 5.0867004 1.0314789 6.9227295 2.8674927c1.8360138 1.836029 2.8674927 4.3262024 2.8674927 6.9227295l0 39.159714c0 5.4069824 -4.3832397 9.790222 -9.790222 9.790222l-97.86838 0c-5.40699 0 -9.79022 -4.3832397 -9.79022 -9.790222z" fill-rule="evenodd"></path><path stroke="#000000" stroke-width="1.0" stroke-linejoin="round" stroke-linecap="butt" d="m27.969816 241.16292l0 0c0 -5.4069824 4.38323 -9.790222 9.79022 -9.790222l97.86838 0c2.596527 0 5.0867004 1.0314789 6.9227295 2.8674927c1.8360138 1.836029 2.8674927 4.3262024 2.8674927 6.9227295l0 39.159714c0 5.4069824 -4.3832397 9.790222 -9.790222 9.790222l-97.86838 0c-5.40699 0 -9.79022 -4.3832397 -9.79022 -9.790222z" fill-rule="evenodd"></path><path fill="#000000" d="m48.709133 263.8034l1.625 -0.21875q0.0625 1.546875 0.578125 2.125q0.53125 0.578125 1.4375 0.578125q0.6875 0 1.171875 -0.3125q0.5 -0.3125 0.671875 -0.84375q0.1875 -0.53125 0.1875 -1.703125l0 -9.359375l1.8125 0l0 9.265625q0 1.703125 -0.421875 2.640625q-0.40625 0.9375 -1.3125 1.4375q-0.890625 0.484375 -2.09375 0.484375q-1.796875 0 -2.75 -1.03125q-0.9375 -1.03125 -0.90625 -3.0625zm16.468754 2.640625q-0.9375 0.796875 -1.7968788 1.125q-0.859375 0.3125 -1.84375 0.3125q-1.609375 0 -2.484375 -0.78125q-0.875 -0.796875 -0.875 -2.03125q0 -0.734375 0.328125 -1.328125q0.328125 -0.59375 0.859375 -0.953125q0.53125 -0.359375 1.203125 -0.546875q0.5 -0.140625 1.484375 -0.25q2.0312538 -0.25 2.9843788 -0.578125q0 -0.34375 0 -0.4375q0 -1.015625 -0.46875 -1.4375q-0.6406288 -0.5625 -1.9062538 -0.5625q-1.171875 0 -1.734375 0.40625q-0.5625 0.40625 -0.828125 1.46875l-1.640625 -0.234375q0.234375 -1.046875 0.734375 -1.6875q0.515625 -0.640625 1.46875 -0.984375q0.96875 -0.359375 2.25 -0.359375q1.2656288 0 2.0468788 0.296875q0.78125 0.296875 1.15625 0.75q0.375 0.453125 0.515625 1.140625q0.09375 0.421875 0.09375 1.53125l0 2.234375q0 2.328125 0.09375 2.953125q0.109375 0.609375 0.4375 1.171875l-1.75 0q-0.265625 -0.515625 -0.328125 -1.21875zm-0.140625 -3.71875q-0.90625 0.359375 -2.7343788 0.625q-1.03125 0.140625 -1.453125 0.328125q-0.421875 0.1875 -0.65625 0.546875q-0.234375 0.359375 -0.234375 0.796875q0 0.671875 0.5 1.125q0.515625 0.4375 1.484375 0.4375q0.96875 0 1.71875 -0.421875q0.7500038 -0.4375 1.1093788 -1.15625q0.265625 -0.578125 0.265625 -1.671875l0 -0.609375zm6.813217 4.9375l-3.75 -9.859375l1.765625 0l2.125 5.90625q0.34375 0.953125 0.625 1.984375q0.21875 -0.78125 0.625 -1.875l2.1875 -6.015625l1.71875 0l-3.734375 9.859375l-1.5625 0zm13.03125 -1.21875q-0.9375 0.796875 -1.796875 1.125q-0.859375 0.3125 -1.84375 0.3125q-1.609375 0 -2.484375 -0.78125q-0.875 -0.796875 -0.875 -2.03125q0 -0.734375 0.328125 -1.328125q0.328125 -0.59375 0.859375 -0.953125q0.53125 -0.359375 1.203125 -0.546875q0.5 -0.140625 1.484375 -0.25q2.03125 -0.25 2.984375 -0.578125q0 -0.34375 0 -0.4375q0 -1.015625 -0.46875 -1.4375q-0.640625 -0.5625 -1.90625 -0.5625q-1.171875 0 -1.734375 0.40625q-0.5625 0.40625 -0.828125 1.46875l-1.640625 -0.234375q0.234375 -1.046875 0.734375 -1.6875q0.515625 -0.640625 1.46875 -0.984375q0.96875 -0.359375 2.25 -0.359375q1.265625 0 2.046875 0.296875q0.78125 0.296875 1.15625 0.75q0.375 0.453125 0.515625 1.140625q0.09375 0.421875 0.09375 1.53125l0 2.234375q0 2.328125 0.09375 2.953125q0.109375 0.609375 0.4375 1.171875l-1.75 0q-0.265625 -0.515625 -0.328125 -1.21875zm-0.140625 -3.71875q-0.90625 0.359375 -2.734375 0.625q-1.03125 0.140625 -1.453125 0.328125q-0.421875 0.1875 -0.65625 0.546875q-0.234375 0.359375 -0.234375 0.796875q0 0.671875 0.5 1.125q0.515625 0.4375 1.484375 0.4375q0.96875 0 1.71875 -0.421875q0.75 -0.4375 1.109375 -1.15625q0.265625 -0.578125 0.265625 -1.671875l0 -0.609375z" fill-rule="nonzero"></path><path fill="#000000" d="m97.81994 254.89716q0 -1.109375 -0.234375 -2.453125q0.96875 0.078125 2.015625 0.21875q-0.234375 0.453125 -0.3125 1.453125q-0.0625 1.0 0.015625 2.859375l2.515625 -0.453125q1.265625 -0.296875 2.53125 -0.65625l0.296875 1.40625q-1.265625 0.140625 -2.609375 0.375l-2.671875 0.515625q0 1.1875 0.15625 2.078125l2.890625 -0.515625q1.484375 -0.296875 2.828125 -0.75l0.21875 1.40625q-1.34375 0.234375 -2.828125 0.53125l-2.890625 0.515625q0.15625 1.484375 0.75 2.75q0.65625 -0.53125 1.28125 -1.1875q0.640625 -0.671875 1.15625 -1.484375q1.125 0.890625 1.71875 1.1875q-0.96875 0.4375 -1.53125 1.0q-0.546875 0.546875 -1.8125 1.734375q0.890625 1.484375 1.59375 1.90625q0.703125 0.40625 1.0 0.03125q0.296875 -0.375 0.515625 -1.5625q0.671875 0.515625 1.5625 0.8125q-1.265625 3.28125 -2.75 2.640625q-1.484375 -0.625 -3.109375 -2.9375q-1.046875 0.828125 -2.046875 1.53125q-1.0 0.703125 -2.484375 1.453125q-0.375 -0.75 -1.1093674 -1.34375q1.4843674 -0.515625 2.5156174 -1.109375q1.046875 -0.59375 2.375 -1.71875q-0.65625 -1.484375 -0.953125 -3.484375q-2.234375 0.375 -3.125 0.671875l-0.21875 -1.40625q0.890625 0 3.046875 -0.453125q-0.15625 -1.1875 -0.15625 -2.0q-2.0 0.4375 -2.75 0.671875l-0.296875 -1.421875q0.75 0 2.90625 -0.4375l0 -2.375zm-4.4531174 -1.703125q-0.75 0.65625 -1.453125 1.890625q-0.703125 1.21875 -1.890625 3.0q1.78125 -0.078125 2.453125 -0.078125q0.65625 -1.109375 1.1875 -2.4375q0.734375 0.515625 1.6249924 0.8125q-0.7343674 0.734375 -1.5156174 2.0q-0.78125 1.265625 -2.71875 4.3125q2.015625 -0.15625 3.5625 -0.296875q-0.21875 0.734375 -0.21875 1.25q-0.515625 0 -2.296875 0.1875q-1.78125 0.1875 -2.890625 0.484375q-0.078125 -0.734375 -0.453125 -1.5625q0.890625 -0.21875 1.625 -1.171875q0.75 -0.96875 1.5625 -2.453125q-2.4375 0.140625 -3.109375 0.59375q-0.21875 -0.828125 -0.671875 -1.640625q0.96875 -0.671875 1.859375 -2.1875q0.890625 -1.515625 1.625 -3.53125q0.75 0.53125 1.71875 0.828125zm1.8437424 11.875q-0.0625 0.8125 0 1.25q-1.8437424 0.375 -3.3281174 0.75q-1.484375 0.375 -2.75 0.8125q-0.21875 -0.8125 -0.8125 -1.625q2.078125 -0.234375 3.1875 -0.40625q1.109375 -0.1875 3.7031174 -0.78125zm6.765625 -9.359375q-0.53125 -0.8125 -1.421875 -1.921875l1.1875 -0.59375q0.296875 0.359375 1.484375 1.78125q-0.734375 0.296875 -1.25 0.734375z" fill-rule="nonzero"></path><path fill="#000000" d="m113.35119 263.72528l-1.625 -1.859375l0 7.4375l-1.484375 0l0 -7.0625q-1.125 2.078125 -2.375 3.1875l-0.96875 -1.40625q2.515625 -2.453125 3.34375 -5.5625l-2.75 0l0 -1.40625l2.75 0l0 -2.078125l-2.3125 0.359375l-0.4375 -1.484375q3.5625 -0.59375 5.71875 -1.40625l1.03125 1.40625q0.078125 0.53125 -0.4375 0.234375l-2.078125 0.59375l0 2.375l2.671875 0l0 1.40625l-2.671875 0l0 1.484375q1.1875 0.8125 2.734375 2.453125l-1.109375 1.328125zm6.609375 -1.703125l0 1.921875l3.109375 0l0 1.421875l-3.109375 0l0 2.0l4.15625 0l0 1.40625l-10.546875 0l0 -1.40625l4.90625 0l0 -2.0l-3.34375 0l0 -1.421875l3.34375 0l0 -1.921875l-3.640625 0l0 -1.40625l8.765625 0l0 1.40625l-3.640625 0zm1.703125 -7.28125l-4.671875 0l0 2.671875l4.671875 0l0 -2.671875zm0 4.75l0 -0.65625l-4.671875 0l0 0.734375l-1.484375 0l0 -6.234375l7.640625 0l0 6.15625l-1.484375 0z" fill-rule="nonzero"></path></g><g filter="url(#shadowFilter-p.6)"><use xlink:href="#p.6" transform="matrix(1.0 0.0 0.0 1.0 -0.1045283420192288 -0.9945218143813566)"></use></g><defs><filter id="shadowFilter-p.6" filterUnits="userSpaceOnUse"><feGaussianBlur in="SourceAlpha" stdDeviation="0.0" result="blur"></feGaussianBlur><feComponentTransfer in="blur" color-interpolation-filters="sRGB"><feFuncR type="linear" slope="0" intercept="0.0"></feFuncR><feFuncG type="linear" slope="0" intercept="0.0"></feFuncG><feFuncB type="linear" slope="0" intercept="0.0"></feFuncB><feFuncA type="linear" slope="0.47" intercept="0"></feFuncA></feComponentTransfer></filter></defs><g id="p.6"><path fill="#000000" fill-opacity="0.0" d="m207.54199 241.85583l0 0c0 -5.4069824 4.3832397 -9.790222 9.790222 -9.790222l97.86838 0c2.596527 0 5.0867004 1.0314636 6.9227295 2.8674927c1.836029 1.836029 2.8674927 4.3262024 2.8674927 6.9227295l0 39.15973c0 5.4069824 -4.3832397 9.790222 -9.790222 9.790222l-97.86838 0c-5.4069824 0 -9.790222 -4.3832397 -9.790222 -9.790222z" fill-rule="evenodd"></path><path stroke="#000000" stroke-width="1.0" stroke-linejoin="round" stroke-linecap="butt" d="m207.54199 241.85583l0 0c0 -5.4069824 4.3832397 -9.790222 9.790222 -9.790222l97.86838 0c2.596527 0 5.0867004 1.0314636 6.9227295 2.8674927c1.836029 1.836029 2.8674927 4.3262024 2.8674927 6.9227295l0 39.15973c0 5.4069824 -4.3832397 9.790222 -9.790222 9.790222l-97.86838 0c-5.4069824 0 -9.790222 -4.3832397 -9.790222 -9.790222z" fill-rule="evenodd"></path><path fill="#000000" d="m236.79765 266.27756l0 -9.203125l-5.859375 0l0 -1.6406097l13.4375 0l0 1.6406097l-5.859375 0l0 9.203125l7.265625 0l0 1.625l-16.171875 0l0 -1.625l7.1875 0zm28.062515 -10.015625l0 1.40625l-5.34375 0l0 2.75l4.671875 0l0 1.40625l-4.671875 0l0 2.453125l4.96875 0l0 1.40625l-4.96875 0l0 4.15625l-1.484375 0l0 -12.171875l-0.75 0q-1.1875 2.515625 -2.5156403 3.859375l-1.40625 -1.046875q2.9687653 -3.109375 3.7031403 -7.3437347l1.5625 0.453125q0.4375 0.21875 -0.078125 0.359375q-0.140625 0.75 -0.734375 2.3124847l7.046875 0zm-16.625015 5.1875q3.265625 -3.78125 4.296875 -8.156235l1.640625 0.515625q0.4375 0.296875 -0.078125 0.375q-0.515625 1.703125 -1.484375 3.7031097l0.453125 0.15625q0.296875 0.296875 -0.234375 0.359375l0 11.4375l-1.484375 0l0 -9.65625q-0.8125 1.34375 -1.921875 2.53125l-1.1875 -1.265625zm31.843735 4.078125q-2.375 -2.59375 -4.3125 -4.296875q-0.96875 3.046875 -4.1562195 5.125l-1.03125 -1.484375q4.1562195 -2.453125 4.1562195 -7.359375l-4.6093445 0l0 11.953125l-1.703125 0l0 -13.359375l6.3749695 0l0 -2.5937347l1.640625 0q0.734375 0.140625 0.078125 0.59375l0 1.9999847l6.671875 0l0 11.734375q0 1.484375 -1.40625 1.484375l-1.78125 0l-0.296875 -1.640625l1.484375 0q0.296875 0 0.296875 -0.296875l0 -9.875l-5.046875 0q0 1.125 -0.21875 2.234375q2.890625 1.921875 4.96875 4.15625l-1.109375 1.625zm9.203125 -2.4375q-1.640625 1.625 -2.3125 2.0l-0.8125 -1.5625q1.78125 -1.109375 3.125 -2.890625l0 -1.34375l0.890625 0.234375q0.953125 -1.484375 1.484375 -3.046875l-5.046875 0l0 -1.4062347l5.40625 0q0.234375 -0.671875 0.53125 -2.078125l1.625 0.4375q0.296875 0.296875 -0.21875 0.375l-0.296875 1.265625l8.984375 0l0 1.4062347l-9.4375 0q-0.8125 2.515625 -2.4375 4.828125l0 8.609375l-1.484375 0l0 -6.828125zm4.078125 -4.828125l6.75 0l0.21875 -0.21875l1.1875 0.953125q0.453125 0.453125 -0.296875 0.59375l-2.8125 2.234375l0 1.109375l4.671875 0l0 1.40625l-4.671875 0l0 4.234375q0 1.1875 -1.1875 1.1875l-1.484375 0l-0.21875 -1.40625l1.109375 0q0.296875 0 0.296875 -0.296875l0 -3.71875l-5.125 0l0 -1.40625l5.125 0l0 -2.15625l0.734375 0.078125l1.265625 -1.1875l-5.5625 0l0 -1.40625z" fill-rule="nonzero"></path></g><path fill="#000000" fill-opacity="0.0" d="m392.07874 12.727035l132.81891 0l0 278.07877l-132.81891 0z" fill-rule="evenodd"></path><path stroke="#000000" stroke-width="1.0" stroke-linejoin="round" stroke-linecap="butt" d="m392.07874 12.727035l132.81891 0l0 278.07877l-132.81891 0z" fill-rule="evenodd"></path><path fill="#000000" d="m437.39032 121.26453l2.671875 -0.265625q0.234375 1.34375 0.96875 1.984375q0.75 0.625 2.0 0.625q1.328125 0 2.0 -0.5625q0.671875 -0.5625 0.671875 -1.3125q0 -0.484375 -0.28125 -0.8125q-0.28125 -0.34375 -0.984375 -0.59375q-0.484375 -0.171875 -2.203125 -0.59375q-2.203125 -0.546875 -3.09375 -1.34375q-1.265625 -1.125 -1.265625 -2.734375q0 -1.046875 0.59375 -1.953125q0.59375 -0.90625 1.703125 -1.375q1.109375 -0.46875 2.671875 -0.46875q2.5625 0 3.859375 1.125q1.296875 1.109375 1.359375 2.984375l-2.75 0.125q-0.171875 -1.046875 -0.75 -1.5q-0.578125 -0.46875 -1.75 -0.46875q-1.1875 0 -1.875 0.5q-0.4375 0.3125 -0.4375 0.84375q0 0.484375 0.421875 0.828125q0.515625 0.421875 2.515625 0.90625q2.0 0.46875 2.953125 0.984375q0.96875 0.5 1.515625 1.375q0.546875 0.875 0.546875 2.15625q0 1.171875 -0.65625 2.203125q-0.640625 1.015625 -1.828125 1.515625q-1.1875 0.484375 -2.96875 0.484375q-2.578125 0 -3.96875 -1.1875q-1.375 -1.1875 -1.640625 -3.46875zm15.068573 -2.421875l-2.359375 -0.4375q0.390625 -1.421875 1.359375 -2.109375q0.984375 -0.6875 2.90625 -0.6875q1.734375 0 2.59375 0.421875q0.859375 0.40625 1.203125 1.046875q0.34375 0.625 0.34375 2.328125l-0.03125 3.046875q0 1.296875 0.125 1.921875q0.125 0.609375 0.46875 1.3125l-2.578125 0q-0.09375 -0.265625 -0.25 -0.765625q-0.0625 -0.234375 -0.09375 -0.3125q-0.65625 0.65625 -1.421875 0.984375q-0.765625 0.3125 -1.625 0.3125q-1.515625 0 -2.40625 -0.8125q-0.875 -0.828125 -0.875 -2.09375q0 -0.84375 0.390625 -1.484375q0.40625 -0.65625 1.125 -1.0q0.71875 -0.359375 2.078125 -0.625q1.828125 -0.328125 2.53125 -0.625l0 -0.265625q0 -0.75 -0.375 -1.0625q-0.359375 -0.328125 -1.390625 -0.328125q-0.703125 0 -1.09375 0.28125q-0.390625 0.265625 -0.625 0.953125zm3.484375 2.109375q-0.5 0.171875 -1.59375 0.40625q-1.078125 0.234375 -1.40625 0.453125q-0.515625 0.359375 -0.515625 0.921875q0 0.546875 0.40625 0.953125q0.40625 0.390625 1.046875 0.390625q0.703125 0 1.34375 -0.46875q0.46875 -0.359375 0.625 -0.859375q0.09375 -0.34375 0.09375 -1.28125l0 -0.515625zm7.6569824 4.734375l-3.96875 -9.859375l2.734375 0l1.84375 5.03125l0.546875 1.6875q0.21875 -0.640625 0.265625 -0.84375q0.125 -0.421875 0.28125 -0.84375l1.875 -5.03125l2.671875 0l-3.90625 9.859375l-2.34375 0zm13.360077 -3.140625l2.609375 0.4375q-0.5 1.4375 -1.59375 2.1875q-1.078125 0.734375 -2.703125 0.734375q-2.5625 0 -3.796875 -1.671875q-0.96875 -1.34375 -0.96875 -3.40625q0 -2.4375 1.265625 -3.828125q1.28125 -1.390625 3.25 -1.390625q2.1875 0 3.453125 1.453125q1.28125 1.453125 1.234375 4.453125l-6.53125 0q0.015625 1.15625 0.625 1.8125q0.609375 0.640625 1.5 0.640625q0.609375 0 1.03125 -0.328125q0.421875 -0.34375 0.625 -1.09375zm0.15625 -2.625q-0.03125 -1.140625 -0.59375 -1.71875q-0.546875 -0.59375 -1.34375 -0.59375q-0.859375 0 -1.40625 0.625q-0.5625 0.609375 -0.546875 1.6875l3.890625 0z" fill-rule="nonzero"></path><path fill="#000000" d="m450.33194 138.78015l0 -2.1875l3.484375 0l0 -1.46875q-1.421875 0.234375 -2.75 0.328125l-0.921875 -2.0625q4.265625 -0.4375 7.484375 -1.625l1.109375 1.65625q0.203125 1.390625 -0.875 0.78125l-1.78125 0.46875l0 1.921875l3.34375 0l0 2.1875l-3.34375 0l0 0.921875q2.0625 0.875 3.5 2.59375l-1.390625 2.0625q-1.65625 -1.8125 -2.109375 -2.125l0 7.015625l-2.265625 0l0 -5.859375q-0.390625 0.796875 -2.46875 2.84375l-1.609375 -1.9375q2.9375 -2.78125 3.84375 -5.515625l-3.25 0zm9.046875 -4.71875l7.828125 0l0 14.375l-2.265625 0l0 -0.96875l-3.296875 0l0 1.40625l-2.265625 0l0 -14.8125zm2.265625 2.1875l0 9.015625l3.296875 0l0 -9.015625l-3.296875 0z" fill-rule="nonzero"></path><path fill="#000000" d="m437.6595 169.6864l0 -13.484375l2.75 0l0 11.1875l6.828125 0l0 2.296875l-9.578125 0zm10.708496 -5.0625q0 -1.296875 0.640625 -2.515625q0.640625 -1.21875 1.8125 -1.859375q1.171875 -0.640625 2.609375 -0.640625q2.25 0 3.671875 1.453125q1.421875 1.453125 1.421875 3.671875q0 2.234375 -1.4375 3.703125q-1.4375 1.46875 -3.625 1.46875q-1.359375 0 -2.59375 -0.609375q-1.21875 -0.609375 -1.859375 -1.796875q-0.640625 -1.1875 -0.640625 -2.875zm2.671875 0.140625q0 1.46875 0.6875 2.25q0.703125 0.765625 1.71875 0.765625q1.015625 0 1.703125 -0.765625q0.703125 -0.78125 0.703125 -2.265625q0 -1.453125 -0.703125 -2.234375q-0.6875 -0.78125 -1.703125 -0.78125q-1.015625 0 -1.71875 0.78125q-0.6875 0.78125 -0.6875 2.25zm11.270966 -1.921875l-2.359375 -0.4375q0.390625 -1.421875 1.359375 -2.109375q0.984375 -0.6875 2.90625 -0.6875q1.734375 0 2.59375 0.421875q0.859375 0.40625 1.203125 1.046875q0.34375 0.625 0.34375 2.328125l-0.03125 3.046875q0 1.296875 0.125 1.921875q0.125 0.609375 0.46875 1.3125l-2.578125 0q-0.09375 -0.265625 -0.25 -0.765625q-0.0625 -0.234375 -0.09375 -0.3125q-0.65625 0.65625 -1.421875 0.984375q-0.765625 0.3125 -1.625 0.3125q-1.515625 0 -2.40625 -0.8125q-0.875 -0.828125 -0.875 -2.09375q0 -0.84375 0.390625 -1.484375q0.40625 -0.65625 1.125 -1.0q0.71875 -0.359375 2.078125 -0.625q1.828125 -0.328125 2.53125 -0.625l0 -0.265625q0 -0.75 -0.375 -1.0625q-0.359375 -0.328125 -1.390625 -0.328125q-0.703125 0 -1.09375 0.28125q-0.390625 0.265625 -0.625 0.953125zm3.484375 2.109375q-0.5 0.171875 -1.59375 0.40625q-1.078125 0.234375 -1.40625 0.453125q-0.515625 0.359375 -0.515625 0.921875q0 0.546875 0.40625 0.953125q0.40625 0.390625 1.046875 0.390625q0.703125 0 1.34375 -0.46875q0.46875 -0.359375 0.625 -0.859375q0.09375 -0.34375 0.09375 -1.28125l0 -0.515625zm13.985107 4.734375l-2.421875 0l0 -1.453125q-0.609375 0.84375 -1.4375 1.265625q-0.8125 0.40625 -1.640625 0.40625q-1.703125 0 -2.921875 -1.359375q-1.203125 -1.375 -1.203125 -3.828125q0 -2.5 1.171875 -3.796875q1.1875 -1.3125 2.984375 -1.3125q1.65625 0 2.859375 1.375l0 -4.890625l2.609375 0l0 13.59375zm-6.96875 -5.140625q0 1.578125 0.4375 2.28125q0.640625 1.015625 1.765625 1.015625q0.90625 0 1.53125 -0.765625q0.625 -0.765625 0.625 -2.28125q0 -1.703125 -0.609375 -2.4375q-0.609375 -0.75 -1.5625 -0.75q-0.9375 0 -1.5625 0.734375q-0.625 0.734375 -0.625 2.203125z" fill-rule="nonzero"></path><path fill="#000000" d="m446.3632 181.51453l-1.484375 0l0 2.546875l1.21875 -0.390625l0.46875 2.015625l-1.6875 0.609375l0 5.515625q0 1.65625 -1.578125 1.65625l-1.5 0l-0.46875 -2.1875l1.4375 0q0.015625 0.171875 -0.15625 0.171875l0 -4.46875l-0.609375 0.171875q-0.15625 1.03125 -1.078125 0.09375l-0.390625 -2.1875l2.078125 -0.46875l0 -3.078125l-1.78125 0l0 -2.1875l1.78125 0l0 -3.78125l1.8125 0q1.625 0.171875 0.453125 1.03125l0 2.75l1.484375 0l0 2.1875zm9.421875 -5.828125l0 4.796875l-8.125 0l0 -4.796875l8.125 0zm-2.046875 1.96875l-4.046875 0l0 0.859375l4.046875 0l0 -0.859375zm-2.109375 3.0l0 4.875l-5.453125 0l0 -4.875l5.453125 0zm-2.046875 1.96875l-1.375 0l0 0.9375l1.375 0l0 -0.9375zm5.71875 0l-1.453125 0l0 0.9375l1.453125 0l0 -0.9375zm2.046875 -1.96875l0 4.875l-5.53125 0l0 -4.875l5.53125 0zm-6.796875 5.578125l0 -1.046875l1.828125 0q1.578125 0.203125 0.4375 1.046875l0 0l5.1875 0l0 1.96875l-4.296875 0q1.578125 1.34375 4.828125 2.40625l-1.03125 2.171875q-3.3125 -1.453125 -4.6875 -2.890625l0 3.578125l-2.265625 0l0 -3.203125q-1.328125 1.53125 -4.890625 2.703125l-0.78125 -2.0625q4.109375 -1.5 4.9375 -2.703125l-4.3125 0l0 -1.96875l5.046875 0zm26.3125 -7.421875l0 2.1875l-5.34375 0l0 1.96875l4.671875 0l0 2.1875l-4.671875 0l0 1.671875l4.96875 0l0 2.1875l-4.96875 0l0 4.15625l-2.265625 0l0 -12.171875l-0.109375 0q-1.109375 2.359375 -2.71875 3.984375l-2.046875 -1.515625q3.203125 -3.34375 3.984375 -7.890625l2.015625 0.59375q1.390625 0.6875 0.125 1.03125q-0.109375 0.546875 -0.515625 1.609375l6.875 0zm-17.546875 5.59375q3.4375 -3.984375 4.546875 -8.671875l2.09375 0.65625q1.3125 0.890625 0.046875 1.078125q-0.453125 1.5 -1.234375 3.140625l0.125 0.03125q0.921875 0.9375 -0.0625 1.046875l0 11.484375l-2.265625 0l0 -8.640625q-0.109375 0.171875 -1.53125 1.703125l-1.71875 -1.828125z" fill-rule="nonzero"></path><g filter="url(#shadowFilter-p.7)"><use xlink:href="#p.7" transform="matrix(1.0 0.0 0.0 1.0 0.0 1.0)"></use></g><defs><filter id="shadowFilter-p.7" filterUnits="userSpaceOnUse"><feGaussianBlur in="SourceAlpha" stdDeviation="0.0" result="blur"></feGaussianBlur><feComponentTransfer in="blur" color-interpolation-filters="sRGB"><feFuncR type="linear" slope="0" intercept="0.0"></feFuncR><feFuncG type="linear" slope="0" intercept="0.0"></feFuncG><feFuncB type="linear" slope="0" intercept="0.0"></feFuncB><feFuncA type="linear" slope="0.5" intercept="0"></feFuncA></feComponentTransfer></filter></defs><g id="p.7"><path fill="#000000" fill-opacity="0.0" d="m145.41995 41.750656l62.11023 0.34645844" fill-rule="evenodd"></path><path stroke="#000000" stroke-width="1.0" stroke-linejoin="round" stroke-linecap="butt" d="m148.84698 41.76977l55.25615 0.30822372" fill-rule="evenodd"></path><path fill="#000000" stroke="#000000" stroke-width="1.0" stroke-linecap="butt" d="m148.84698 41.76977l1.1308289 -1.1182938l-3.095993 1.1073341l3.0834503 1.1417999z" fill-rule="evenodd"></path><path fill="#000000" stroke="#000000" stroke-width="1.0" stroke-linecap="butt" d="m204.10315 42.077995l-1.1308441 1.1182938l3.095993 -1.1073303l-3.083435 -1.1417999z" fill-rule="evenodd"></path></g><g filter="url(#shadowFilter-p.8)"><use xlink:href="#p.8" transform="matrix(1.0 0.0 0.0 1.0 0.0 1.0)"></use></g><defs><filter id="shadowFilter-p.8" filterUnits="userSpaceOnUse"><feGaussianBlur in="SourceAlpha" stdDeviation="0.0" result="blur"></feGaussianBlur><feComponentTransfer in="blur" color-interpolation-filters="sRGB"><feFuncR type="linear" slope="0" intercept="0.0"></feFuncR><feFuncG type="linear" slope="0" intercept="0.0"></feFuncG><feFuncB type="linear" slope="0" intercept="0.0"></feFuncB><feFuncA type="linear" slope="0.5" intercept="0"></feFuncA></feComponentTransfer></filter></defs><g id="p.8"><path fill="#000000" fill-opacity="0.0" d="m145.41864 151.07349l62.11023 0.69291687" fill-rule="evenodd"></path><path stroke="#000000" stroke-width="1.0" stroke-linejoin="round" stroke-linecap="butt" d="m148.84552 151.11172l55.25647 0.6164398" fill-rule="evenodd"></path><path fill="#000000" stroke="#000000" stroke-width="1.0" stroke-linecap="butt" d="m148.8455 151.11172l1.1370697 -1.111969l-3.102127 1.0900421l3.0770264 1.1589813z" fill-rule="evenodd"></path><path fill="#000000" stroke="#000000" stroke-width="1.0" stroke-linecap="butt" d="m204.102 151.72818l-1.1370697 1.111969l3.102127 -1.0900574l-3.0770264 -1.1589813z" fill-rule="evenodd"></path></g><g filter="url(#shadowFilter-p.9)"><use xlink:href="#p.9" transform="matrix(1.0 0.0 0.0 1.0 0.0 1.0)"></use></g><defs><filter id="shadowFilter-p.9" filterUnits="userSpaceOnUse"><feGaussianBlur in="SourceAlpha" stdDeviation="0.0" result="blur"></feGaussianBlur><feComponentTransfer in="blur" color-interpolation-filters="sRGB"><feFuncR type="linear" slope="0" intercept="0.0"></feFuncR><feFuncG type="linear" slope="0" intercept="0.0"></feFuncG><feFuncB type="linear" slope="0" intercept="0.0"></feFuncB><feFuncA type="linear" slope="0.5" intercept="0"></feFuncA></feComponentTransfer></filter></defs><g id="p.9"><path fill="#000000" fill-opacity="0.0" d="m145.41864 260.74277l62.11023 0.6929321" fill-rule="evenodd"></path><path stroke="#000000" stroke-width="1.0" stroke-linejoin="round" stroke-linecap="butt" d="m148.84552 260.781l55.25647 0.6164551" fill-rule="evenodd"></path><path fill="#000000" stroke="#000000" stroke-width="1.0" stroke-linecap="butt" d="m148.8455 260.781l1.1370697 -1.111969l-3.102127 1.0900574l3.0770264 1.1589661z" fill-rule="evenodd"></path><path fill="#000000" stroke="#000000" stroke-width="1.0" stroke-linecap="butt" d="m204.102 261.39746l-1.1370697 1.111969l3.102127 -1.0900574l-3.0770264 -1.1589661z" fill-rule="evenodd"></path></g><g filter="url(#shadowFilter-p.10)"><use xlink:href="#p.10" transform="matrix(1.0 0.0 0.0 1.0 0.0 1.0)"></use></g><defs><filter id="shadowFilter-p.10" filterUnits="userSpaceOnUse"><feGaussianBlur in="SourceAlpha" stdDeviation="0.0" result="blur"></feGaussianBlur><feComponentTransfer in="blur" color-interpolation-filters="sRGB"><feFuncR type="linear" slope="0" intercept="0.0"></feFuncR><feFuncG type="linear" slope="0" intercept="0.0"></feFuncG><feFuncB type="linear" slope="0" intercept="0.0"></feFuncB><feFuncA type="linear" slope="0.5" intercept="0"></feFuncA></feComponentTransfer></filter></defs><g id="p.10"><path fill="#000000" fill-opacity="0.0" d="m324.9908 42.097115l67.08661 0" fill-rule="evenodd"></path><path stroke="#000000" stroke-width="1.0" stroke-linejoin="round" stroke-linecap="butt" d="m328.4179 42.097115l60.23242 0" fill-rule="evenodd"></path><path fill="#000000" stroke="#000000" stroke-width="1.0" stroke-linecap="butt" d="m328.4179 42.097115l1.1245728 -1.1245842l-3.0897522 1.1245842l3.0897522 1.1245804z" fill-rule="evenodd"></path><path fill="#000000" stroke="#000000" stroke-width="1.0" stroke-linecap="butt" d="m388.65033 42.097115l-1.1245728 1.1245804l3.0897827 -1.1245804l-3.0897827 -1.1245842z" fill-rule="evenodd"></path></g><g filter="url(#shadowFilter-p.11)"><use xlink:href="#p.11" transform="matrix(1.0 0.0 0.0 1.0 0.0 1.0)"></use></g><defs><filter id="shadowFilter-p.11" filterUnits="userSpaceOnUse"><feGaussianBlur in="SourceAlpha" stdDeviation="0.0" result="blur"></feGaussianBlur><feComponentTransfer in="blur" color-interpolation-filters="sRGB"><feFuncR type="linear" slope="0" intercept="0.0"></feFuncR><feFuncG type="linear" slope="0" intercept="0.0"></feFuncG><feFuncB type="linear" slope="0" intercept="0.0"></feFuncB><feFuncA type="linear" slope="0.5" intercept="0"></feFuncA></feComponentTransfer></filter></defs><g id="p.11"><path fill="#000000" fill-opacity="0.0" d="m324.9908 151.41995l67.08661 0" fill-rule="evenodd"></path><path stroke="#000000" stroke-width="1.0" stroke-linejoin="round" stroke-linecap="butt" d="m328.4179 151.41995l60.23242 0" fill-rule="evenodd"></path><path fill="#000000" stroke="#000000" stroke-width="1.0" stroke-linecap="butt" d="m328.4179 151.41995l1.1245728 -1.124588l-3.0897522 1.124588l3.0897522 1.1245728z" fill-rule="evenodd"></path><path fill="#000000" stroke="#000000" stroke-width="1.0" stroke-linecap="butt" d="m388.65033 151.41995l-1.1245728 1.1245728l3.0897827 -1.1245728l-3.0897827 -1.124588z" fill-rule="evenodd"></path></g><g filter="url(#shadowFilter-p.12)"><use xlink:href="#p.12" transform="matrix(1.0 0.0 0.0 1.0 0.0 1.0)"></use></g><defs><filter id="shadowFilter-p.12" filterUnits="userSpaceOnUse"><feGaussianBlur in="SourceAlpha" stdDeviation="0.0" result="blur"></feGaussianBlur><feComponentTransfer in="blur" color-interpolation-filters="sRGB"><feFuncR type="linear" slope="0" intercept="0.0"></feFuncR><feFuncG type="linear" slope="0" intercept="0.0"></feFuncG><feFuncB type="linear" slope="0" intercept="0.0"></feFuncB><feFuncA type="linear" slope="0.5" intercept="0"></feFuncA></feComponentTransfer></filter></defs><g id="p.12"><path fill="#000000" fill-opacity="0.0" d="m324.9908 261.08923l67.08661 0" fill-rule="evenodd"></path><path stroke="#000000" stroke-width="1.0" stroke-linejoin="round" stroke-linecap="butt" d="m328.4179 261.08923l60.23242 0" fill-rule="evenodd"></path><path fill="#000000" stroke="#000000" stroke-width="1.0" stroke-linecap="butt" d="m328.4179 261.08923l1.1245728 -1.1245728l-3.0897522 1.1245728l3.0897522 1.1246033z" fill-rule="evenodd"></path><path fill="#000000" stroke="#000000" stroke-width="1.0" stroke-linecap="butt" d="m388.65033 261.08923l-1.1245728 1.1246033l3.0897827 -1.1246033l-3.0897827 -1.1245728z" fill-rule="evenodd"></path></g><path fill="#000000" fill-opacity="0.0" d="m591.98425 34.86396l0 0c0 -12.225887 9.911011 -22.136925 22.136902 -22.136925l88.545044 0l0 0c5.8710938 0 11.501709 2.3322763 15.653198 6.483754c4.1514893 4.1514797 6.4837646 9.782093 6.4837646 15.653172l0 233.11197c0 12.225891 -9.911072 22.136932 -22.136963 22.136932l-88.545044 0c-12.225891 0 -22.136902 -9.911041 -22.136902 -22.136932z" fill-rule="evenodd"></path><path stroke="#000000" stroke-width="1.0" stroke-linejoin="round" stroke-linecap="butt" d="m591.98425 34.86396l0 0c0 -12.225887 9.911011 -22.136925 22.136902 -22.136925l88.545044 0l0 0c5.8710938 0 11.501709 2.3322763 15.653198 6.483754c4.1514893 4.1514797 6.4837646 9.782093 6.4837646 15.653172l0 233.11197c0 12.225891 -9.911072 22.136932 -22.136963 22.136932l-88.545044 0c-12.225891 0 -22.136902 -9.911041 -22.136902 -22.136932z" fill-rule="evenodd"></path><path fill="#000000" d="m640.8468 156.88683l7.34375 0l0 2.203125l-16.8125 0l0 -2.203125l7.203125 0l0 -3.8125l-5.125 0l0 -2.203125l5.125 0l0 -2.84375l-6.53125 0l0 -2.203125l6.8125 0q-0.609375 -0.71875 -2.453125 -2.015625l1.859375 -1.640625q1.765625 1.15625 3.578125 3.0625l-0.765625 0.59375l6.296875 0l0 2.203125l-6.53125 0l0 2.84375l5.125 0l0 2.203125l-5.125 0l0 3.8125zm22.296875 -1.140625q-2.703125 -2.9375 -4.171875 -4.234375q-0.828125 2.609375 -4.453125 4.96875l-1.484375 -2.140625q4.328125 -2.546875 4.328125 -6.84375l-3.828125 0l0 11.953125l-2.484375 0l0 -14.140625l6.375 0l0 -2.59375l2.0625 0q1.6875 0.328125 0.4375 1.1875l0 1.40625l6.671875 0l0 12.125q0 1.875 -1.796875 1.875l-2.109375 0l-0.4375 -2.421875l1.953125 0q0 0.09375 -0.09375 0.09375l0 -9.484375l-4.265625 0q0 0.765625 -0.171875 1.65625q2.703125 1.8125 5.03125 4.3125l-1.5625 2.28125zm8.765625 -2.125q-1.015625 1.0 -2.078125 1.59375l-1.171875 -2.234375q2.03125 -1.265625 3.25 -2.875l0 -1.71875l1.109375 0.28125q0.765625 -1.203125 1.109375 -2.203125l-4.890625 0l0 -2.1875l5.515625 0q0.140625 -0.390625 0.515625 -2.171875l2.125 0.578125q0.921875 0.90625 -0.109375 1.0625l-0.109375 0.53125l8.875 0l0 2.1875l-9.546875 0q-0.734375 2.296875 -2.328125 4.5625l0 8.875l-2.265625 0l0 -6.28125zm4.078125 -6.15625l6.984375 0l0.34375 -0.359375l1.484375 1.1875q0.984375 1.0 -0.390625 1.25l-2.59375 2.0625l0 0.53125l4.671875 0l0 2.1875l-4.671875 0l0 3.84375q0 1.578125 -1.578125 1.578125l-1.8125 0l-0.34375 -2.1875l1.5625 0q0 0.09375 -0.09375 0.09375l0 -3.328125l-5.125 0l0 -2.1875l5.125 0l0 -2.203125l0.984375 0.109375l0.421875 -0.390625l-4.96875 0l0 -2.1875z" fill-rule="nonzero"></path><g filter="url(#shadowFilter-p.13)"><use xlink:href="#p.13" transform="matrix(1.0 0.0 0.0 1.0 0.0 1.0)"></use></g><defs><filter id="shadowFilter-p.13" filterUnits="userSpaceOnUse"><feGaussianBlur in="SourceAlpha" stdDeviation="0.0" result="blur"></feGaussianBlur><feComponentTransfer in="blur" color-interpolation-filters="sRGB"><feFuncR type="linear" slope="0" intercept="0.0"></feFuncR><feFuncG type="linear" slope="0" intercept="0.0"></feFuncG><feFuncB type="linear" slope="0" intercept="0.0"></feFuncB><feFuncA type="linear" slope="0.5" intercept="0"></feFuncA></feComponentTransfer></filter></defs><g id="p.13"><path fill="#000000" fill-opacity="0.0" d="m524.8963 151.41995l67.08661 0" fill-rule="evenodd"></path><path stroke="#000000" stroke-width="1.0" stroke-linejoin="round" stroke-linecap="butt" d="m528.3234 151.41995l60.23242 0" fill-rule="evenodd"></path><path fill="#000000" stroke="#000000" stroke-width="1.0" stroke-linecap="butt" d="m528.3234 151.41995l1.1245728 -1.124588l-3.0897827 1.124588l3.0897827 1.1245728z" fill-rule="evenodd"></path><path fill="#000000" stroke="#000000" stroke-width="1.0" stroke-linecap="butt" d="m588.55585 151.41995l-1.1245728 1.1245728l3.0897827 -1.1245728l-3.0897827 -1.124588z" fill-rule="evenodd"></path></g></g></svg>

